<mxfile host="www.draw.io" modified="2020-01-04T03:35:14.381Z" agent="Mozilla/5.0 (Macintosh; Intel Mac OS X 10_14_0) AppleWebKit/537.36 (KHTML, like Gecko) Chrome/79.0.3945.88 Safari/537.36" etag="RSCn31zfDMNccefAX6QL" version="12.4.8" type="github">
  <diagram id="2NiOkRvZ153gSQZ4bXkW" name="Page-1">
    <mxGraphModel dx="1186" dy="741" grid="1" gridSize="10" guides="1" tooltips="1" connect="1" arrows="1" fold="1" page="1" pageScale="1" pageWidth="827" pageHeight="1169" math="0" shadow="0">
      <root>
        <mxCell id="0"/>
        <mxCell id="1" parent="0"/>
        <mxCell id="TMRPxdtAE1H7xzEqF-Zu-1" value="«interface»&#xa;Iterator" style="swimlane;fontStyle=1;align=center;verticalAlign=top;childLayout=stackLayout;horizontal=1;startSize=44;horizontalStack=0;resizeParent=1;resizeParentMax=0;resizeLast=0;collapsible=1;marginBottom=0;fillColor=#F08E81;fontColor=#FFFFFF;" vertex="1" parent="1">
          <mxGeometry x="130" y="163" width="160" height="97" as="geometry"/>
        </mxCell>
        <mxCell id="TMRPxdtAE1H7xzEqF-Zu-3" value="" style="line;strokeWidth=1;fillColor=#F08E81;align=left;verticalAlign=middle;spacingTop=-1;spacingLeft=3;spacingRight=3;rotatable=0;labelPosition=right;points=[];portConstraint=eastwest;fontColor=#FFFFFF;" vertex="1" parent="TMRPxdtAE1H7xzEqF-Zu-1">
          <mxGeometry y="44" width="160" height="1" as="geometry"/>
        </mxCell>
        <mxCell id="TMRPxdtAE1H7xzEqF-Zu-4" value="+ next(): Object" style="text;strokeColor=none;fillColor=#F08E81;align=left;verticalAlign=top;spacingLeft=4;spacingRight=4;overflow=hidden;rotatable=0;points=[[0,0.5],[1,0.5]];portConstraint=eastwest;fontColor=#FFFFFF;" vertex="1" parent="TMRPxdtAE1H7xzEqF-Zu-1">
          <mxGeometry y="45" width="160" height="26" as="geometry"/>
        </mxCell>
        <mxCell id="TMRPxdtAE1H7xzEqF-Zu-19" value="+ haNext(): boolean" style="text;strokeColor=none;fillColor=#F08E81;align=left;verticalAlign=top;spacingLeft=4;spacingRight=4;overflow=hidden;rotatable=0;points=[[0,0.5],[1,0.5]];portConstraint=eastwest;fontColor=#FFFFFF;" vertex="1" parent="TMRPxdtAE1H7xzEqF-Zu-1">
          <mxGeometry y="71" width="160" height="26" as="geometry"/>
        </mxCell>
        <mxCell id="TMRPxdtAE1H7xzEqF-Zu-11" value="ConcreteIterator" style="swimlane;fontStyle=1;align=center;verticalAlign=top;childLayout=stackLayout;horizontal=1;startSize=26;horizontalStack=0;resizeParent=1;resizeParentMax=0;resizeLast=0;collapsible=1;marginBottom=0;fillColor=#F08E81;fontColor=#FFFFFF;" vertex="1" parent="1">
          <mxGeometry x="130" y="475" width="160" height="79" as="geometry"/>
        </mxCell>
        <mxCell id="TMRPxdtAE1H7xzEqF-Zu-13" value="" style="line;strokeWidth=1;fillColor=#F08E81;align=left;verticalAlign=middle;spacingTop=-1;spacingLeft=3;spacingRight=3;rotatable=0;labelPosition=right;points=[];portConstraint=eastwest;fontColor=#FFFFFF;" vertex="1" parent="TMRPxdtAE1H7xzEqF-Zu-11">
          <mxGeometry y="26" width="160" height="1" as="geometry"/>
        </mxCell>
        <mxCell id="TMRPxdtAE1H7xzEqF-Zu-14" value="+ next(): Object" style="text;strokeColor=none;fillColor=#F08E81;align=left;verticalAlign=top;spacingLeft=4;spacingRight=4;overflow=hidden;rotatable=0;points=[[0,0.5],[1,0.5]];portConstraint=eastwest;fontColor=#FFFFFF;" vertex="1" parent="TMRPxdtAE1H7xzEqF-Zu-11">
          <mxGeometry y="27" width="160" height="26" as="geometry"/>
        </mxCell>
        <mxCell id="TMRPxdtAE1H7xzEqF-Zu-25" value="+ haNext(): boolean" style="text;strokeColor=none;fillColor=#F08E81;align=left;verticalAlign=top;spacingLeft=4;spacingRight=4;overflow=hidden;rotatable=0;points=[[0,0.5],[1,0.5]];portConstraint=eastwest;fontColor=#FFFFFF;" vertex="1" parent="TMRPxdtAE1H7xzEqF-Zu-11">
          <mxGeometry y="53" width="160" height="26" as="geometry"/>
        </mxCell>
        <mxCell id="TMRPxdtAE1H7xzEqF-Zu-15" value="ConcreteAggregate" style="swimlane;fontStyle=1;align=center;verticalAlign=top;childLayout=stackLayout;horizontal=1;startSize=26;horizontalStack=0;resizeParent=1;resizeParentMax=0;resizeLast=0;collapsible=1;marginBottom=0;fillColor=#F08E81;fontColor=#FFFFFF;" vertex="1" parent="1">
          <mxGeometry x="520" y="462" width="160" height="105" as="geometry"/>
        </mxCell>
        <mxCell id="TMRPxdtAE1H7xzEqF-Zu-17" value="" style="line;strokeWidth=1;fillColor=#F08E81;align=left;verticalAlign=middle;spacingTop=-1;spacingLeft=3;spacingRight=3;rotatable=0;labelPosition=right;points=[];portConstraint=eastwest;fontColor=#FFFFFF;" vertex="1" parent="TMRPxdtAE1H7xzEqF-Zu-15">
          <mxGeometry y="26" width="160" height="1" as="geometry"/>
        </mxCell>
        <mxCell id="TMRPxdtAE1H7xzEqF-Zu-18" value="+ add(): Object" style="text;strokeColor=none;fillColor=#F08E81;align=left;verticalAlign=top;spacingLeft=4;spacingRight=4;overflow=hidden;rotatable=0;points=[[0,0.5],[1,0.5]];portConstraint=eastwest;fontColor=#FFFFFF;" vertex="1" parent="TMRPxdtAE1H7xzEqF-Zu-15">
          <mxGeometry y="27" width="160" height="26" as="geometry"/>
        </mxCell>
        <mxCell id="TMRPxdtAE1H7xzEqF-Zu-26" value="+ remove(): Object" style="text;strokeColor=none;fillColor=#F08E81;align=left;verticalAlign=top;spacingLeft=4;spacingRight=4;overflow=hidden;rotatable=0;points=[[0,0.5],[1,0.5]];portConstraint=eastwest;fontColor=#FFFFFF;" vertex="1" parent="TMRPxdtAE1H7xzEqF-Zu-15">
          <mxGeometry y="53" width="160" height="26" as="geometry"/>
        </mxCell>
        <mxCell id="TMRPxdtAE1H7xzEqF-Zu-27" value="+ iterator(): Iterator" style="text;strokeColor=none;fillColor=#F08E81;align=left;verticalAlign=top;spacingLeft=4;spacingRight=4;overflow=hidden;rotatable=0;points=[[0,0.5],[1,0.5]];portConstraint=eastwest;fontColor=#FFFFFF;" vertex="1" parent="TMRPxdtAE1H7xzEqF-Zu-15">
          <mxGeometry y="79" width="160" height="26" as="geometry"/>
        </mxCell>
        <mxCell id="TMRPxdtAE1H7xzEqF-Zu-20" value="«interface»&#xa;Aggregate" style="swimlane;fontStyle=1;align=center;verticalAlign=top;childLayout=stackLayout;horizontal=1;startSize=44;horizontalStack=0;resizeParent=1;resizeParentMax=0;resizeLast=0;collapsible=1;marginBottom=0;fillColor=#F08E81;fontColor=#FFFFFF;" vertex="1" parent="1">
          <mxGeometry x="520" y="150" width="160" height="123" as="geometry"/>
        </mxCell>
        <mxCell id="TMRPxdtAE1H7xzEqF-Zu-21" value="" style="line;strokeWidth=1;fillColor=#F08E81;align=left;verticalAlign=middle;spacingTop=-1;spacingLeft=3;spacingRight=3;rotatable=0;labelPosition=right;points=[];portConstraint=eastwest;fontColor=#FFFFFF;" vertex="1" parent="TMRPxdtAE1H7xzEqF-Zu-20">
          <mxGeometry y="44" width="160" height="1" as="geometry"/>
        </mxCell>
        <mxCell id="TMRPxdtAE1H7xzEqF-Zu-22" value="+ add(): Object" style="text;strokeColor=none;fillColor=#F08E81;align=left;verticalAlign=top;spacingLeft=4;spacingRight=4;overflow=hidden;rotatable=0;points=[[0,0.5],[1,0.5]];portConstraint=eastwest;fontColor=#FFFFFF;" vertex="1" parent="TMRPxdtAE1H7xzEqF-Zu-20">
          <mxGeometry y="45" width="160" height="26" as="geometry"/>
        </mxCell>
        <mxCell id="TMRPxdtAE1H7xzEqF-Zu-23" value="+ remove(): Object" style="text;strokeColor=none;fillColor=#F08E81;align=left;verticalAlign=top;spacingLeft=4;spacingRight=4;overflow=hidden;rotatable=0;points=[[0,0.5],[1,0.5]];portConstraint=eastwest;fontColor=#FFFFFF;" vertex="1" parent="TMRPxdtAE1H7xzEqF-Zu-20">
          <mxGeometry y="71" width="160" height="26" as="geometry"/>
        </mxCell>
        <mxCell id="TMRPxdtAE1H7xzEqF-Zu-24" value="+ iterator(): Iterator" style="text;strokeColor=none;fillColor=#F08E81;align=left;verticalAlign=top;spacingLeft=4;spacingRight=4;overflow=hidden;rotatable=0;points=[[0,0.5],[1,0.5]];portConstraint=eastwest;fontColor=#FFFFFF;" vertex="1" parent="TMRPxdtAE1H7xzEqF-Zu-20">
          <mxGeometry y="97" width="160" height="26" as="geometry"/>
        </mxCell>
        <mxCell id="TMRPxdtAE1H7xzEqF-Zu-28" value="" style="endArrow=block;dashed=1;endFill=0;endSize=12;html=1;fontColor=#000000;entryX=0.5;entryY=1;entryDx=0;entryDy=0;exitX=0.5;exitY=0;exitDx=0;exitDy=0;" edge="1" parent="1" source="TMRPxdtAE1H7xzEqF-Zu-11" target="TMRPxdtAE1H7xzEqF-Zu-1">
          <mxGeometry width="160" relative="1" as="geometry">
            <mxPoint x="40" y="660" as="sourcePoint"/>
            <mxPoint x="200" y="660" as="targetPoint"/>
          </mxGeometry>
        </mxCell>
        <mxCell id="TMRPxdtAE1H7xzEqF-Zu-29" value="" style="endArrow=block;dashed=1;endFill=0;endSize=12;html=1;fontColor=#000000;entryX=0.5;entryY=1;entryDx=0;entryDy=0;exitX=0.5;exitY=0;exitDx=0;exitDy=0;" edge="1" parent="1" source="TMRPxdtAE1H7xzEqF-Zu-15" target="TMRPxdtAE1H7xzEqF-Zu-20">
          <mxGeometry width="160" relative="1" as="geometry">
            <mxPoint x="330" y="430" as="sourcePoint"/>
            <mxPoint x="490" y="430" as="targetPoint"/>
          </mxGeometry>
        </mxCell>
        <mxCell id="TMRPxdtAE1H7xzEqF-Zu-30" value="" style="endArrow=diamondThin;endFill=0;endSize=24;html=1;fontColor=#000000;exitX=0.5;exitY=0;exitDx=0;exitDy=0;entryX=0.5;entryY=0;entryDx=0;entryDy=0;edgeStyle=orthogonalEdgeStyle;" edge="1" parent="1" source="TMRPxdtAE1H7xzEqF-Zu-20" target="TMRPxdtAE1H7xzEqF-Zu-1">
          <mxGeometry width="160" relative="1" as="geometry">
            <mxPoint x="270" y="390" as="sourcePoint"/>
            <mxPoint x="288" y="206" as="targetPoint"/>
            <Array as="points">
              <mxPoint x="600" y="110"/>
              <mxPoint x="210" y="110"/>
            </Array>
          </mxGeometry>
        </mxCell>
      </root>
    </mxGraphModel>
  </diagram>
</mxfile>
